<svg width="8" height="8" viewBox="6 3 8 8" fill="none" xmlns="http://www.w3.org/2000/svg"><path d="M10.6911 3.57767L11.395 4.99715C11.491 5.19475 11.7469 5.38428 11.9629 5.42057L13.2388 5.6343C14.0547 5.77141 14.2467 6.36824 13.6587 6.957L12.6668 7.95709C12.4989 8.12645 12.4069 8.4531 12.4589 8.68699L12.7428 9.925C12.9668 10.9049 12.4509 11.284 11.591 10.7718L10.3951 10.0581C10.1791 9.92903 9.82315 9.92903 9.60317 10.0581L8.40731 10.7718C7.5514 11.284 7.03146 10.9009 7.25543 9.925L7.5394 8.68699C7.5914 8.4531 7.49941 8.12645 7.33143 7.95709L6.33954 6.957C5.7556 6.36824 5.94358 5.77141 6.75949 5.6343L8.03535 5.42057C8.24732 5.38428 8.5033 5.19475 8.59929 4.99715L9.30321 3.57767C9.68717 2.80744 10.3111 2.80744 10.6911 3.57767Z" fill="#2F9DD4"/></svg>
