<svg width="861" height="326" viewBox="234 200 861 326" fill="none" xmlns="http://www.w3.org/2000/svg">
<path fill-rule="evenodd" clip-rule="evenodd" d="M514.868 389.82L555.141 349.547H431.531C426.12 349.547 420.932 351.696 417.106 355.522L384.86 387.768L352.614 355.522C348.788 351.696 343.599 349.547 338.189 349.547H234L275.41 389.82H323.832C325.635 389.82 327.365 390.536 328.64 391.812L364.371 427.543L328.64 463.274C327.365 464.549 325.635 465.266 323.832 465.266H275.41L234 505.539H338.189C343.599 505.539 348.788 503.39 352.614 499.564L384.86 467.318L417.106 499.564C420.932 503.39 426.12 505.539 431.531 505.539H478.534V465.266H445.888C444.085 465.266 442.355 464.549 441.08 463.274L405.348 427.543L441.08 391.812C442.355 390.536 444.085 389.82 445.888 389.82H514.868Z" fill="url(#paint0_linear_3447_387)"/>
<path fill-rule="evenodd" clip-rule="evenodd" d="M563.837 458.744H669.817V525.103H710.09V330.016H611.774C606.363 330.016 601.174 332.165 597.348 335.991L504.513 428.834C500.688 432.66 498.539 437.848 498.539 443.258V525.103H538.799L538.711 448.146C538.709 446.341 539.424 444.61 540.699 443.334L565.519 418.471H565.501L576.364 407.607L579.16 404.806L579.163 404.808L611.695 372.276C612.971 371.001 614.7 370.284 616.504 370.284H669.817V418.471H594.217L564.782 448.56C564.158 449.198 563.81 450.055 563.813 450.948L563.837 458.744Z" fill="black"/>
<path fill-rule="evenodd" clip-rule="evenodd" d="M731.836 525.092V330H879.138C884.548 330 889.737 332.149 893.563 335.975L916.861 370.273H772.109V401.459H927.523C932.934 401.459 938.122 403.609 941.948 407.434L958.409 428.895C959.684 430.171 960.401 431.9 960.401 433.704V493.011C960.401 494.821 959.679 496.557 958.395 497.834L936.941 519.16C933.119 522.959 927.948 525.092 922.559 525.092H792.526L792.526 484.819H908.128C909.954 484.819 911.703 484.085 912.982 482.781L919.641 475.994C919.953 475.676 920.128 475.249 920.128 474.804V451.582C920.128 451.131 919.949 450.699 919.63 450.38L912.974 443.724C911.699 442.449 909.969 441.732 908.166 441.732H772.109V483.119C772.109 483.201 772.115 483.282 772.126 483.36L772.126 525.092H731.836Z" fill="black"/>
<path d="M855.001 219V289.812H840.219V233.651L788.688 233.651C788.161 233.651 787.655 233.859 787.28 234.23L748.421 272.743C748.042 273.119 747.829 273.63 747.829 274.164V289.812H733.047V269.339C733.047 267.205 733.9 265.159 735.415 263.657L778.135 221.318C779.633 219.833 781.657 219 783.766 219H855.001Z" fill="black"/>
<path d="M684.324 275.161V233.651L620.259 233.651C619.73 233.651 619.222 233.861 618.847 234.235L609.001 244.053C608.625 244.428 608.413 244.938 608.413 245.469V275.161H684.324ZM590.048 289.812H586.375V275.161H593.721V238.974C593.721 237.911 594.144 236.892 594.897 236.141L609.745 221.335C611.244 219.84 613.276 219 615.394 219L699.016 219V275.161H706.362V289.812H699.016H691.67H601.067H590.048Z" fill="black"/>
<path d="M545.005 275.161V260.511H468.032C467.505 260.511 467 260.718 466.626 261.088L464.099 263.586C463.719 263.962 463.506 264.474 463.506 265.008V275.161H545.005ZM448.688 289.812V258.518C448.688 257.449 449.115 256.425 449.875 255.674L457.464 248.171C458.961 246.69 460.982 245.86 463.088 245.86H545.005V233.651L459.801 233.651V219L559.823 219V286.149V289.812H448.688Z" fill="black"/>
<path d="M311 289.812L311 219H329.359L413.809 219L421.152 219V289.812H406.465V233.651L336.702 233.651H325.687V289.812H322.015H311Z" fill="black"/>
<path fill-rule="evenodd" clip-rule="evenodd" d="M1073.63 346.253C1082.89 331.967 1095.47 307.423 1095.47 289.15C1095.47 237.864 1050.11 200 998.736 200C947.36 200 902 237.864 902 289.15C902 307.97 915.03 332.904 924.67 347.534C954.361 389.92 968.015 404.945 975.885 413.605C977.917 415.841 979.563 417.652 981 419.401L981.025 419.431C981.717 420.32 983.108 422.473 983.131 423.974L983.753 476.002H1017.35V423.974C1017.21 423.447 1017.32 421.8 1018.82 419.431L1019.03 419.172C1020.39 417.451 1022.11 415.492 1024.23 413.065C1032.75 403.313 1047.87 386.009 1073.63 346.253ZM1017.35 495.219H983.982L984.019 498.257C984.044 500.346 983.251 502.361 981.81 503.873L971.268 514.931C969.849 516.418 969.058 518.395 969.058 520.451V522.982C969.058 524.086 969.953 524.982 971.058 524.982H1030.35C1031.46 524.982 1032.35 524.086 1032.35 522.982V520.402C1032.35 518.35 1031.56 516.377 1030.15 514.89L1019.55 503.747C1018.14 502.26 1017.35 500.286 1017.35 498.234V495.219ZM983.09 253.86C987.45 253.86 990.985 250.325 990.985 245.965C990.985 241.605 987.45 238.07 983.09 238.07C978.73 238.07 975.195 241.605 975.195 245.965C975.195 250.325 978.73 253.86 983.09 253.86ZM990.992 340.703C990.992 345.063 987.458 348.598 983.098 348.598C978.738 348.598 975.203 345.063 975.203 340.703C975.203 336.343 978.738 332.809 983.098 332.809C987.458 332.809 990.992 336.343 990.992 340.703ZM983.09 285.438C987.45 285.438 990.985 281.903 990.985 277.543C990.985 273.183 987.45 269.648 983.09 269.648C978.73 269.648 975.195 273.183 975.195 277.543C975.195 281.903 978.73 285.438 983.09 285.438ZM990.985 309.125C990.985 313.485 987.45 317.02 983.09 317.02C978.73 317.02 975.195 313.485 975.195 309.125C975.195 304.765 978.73 301.23 983.09 301.23C987.45 301.23 990.985 304.765 990.985 309.125ZM951.52 285.438C955.88 285.438 959.414 281.903 959.414 277.543C959.414 273.183 955.88 269.648 951.52 269.648C947.16 269.648 943.625 273.183 943.625 277.543C943.625 281.903 947.16 285.438 951.52 285.438ZM959.414 309.125C959.414 313.485 955.88 317.02 951.52 317.02C947.16 317.02 943.625 313.485 943.625 309.125C943.625 304.765 947.16 301.23 951.52 301.23C955.88 301.23 959.414 304.765 959.414 309.125ZM1014.68 253.86C1019.04 253.86 1022.57 250.325 1022.57 245.965C1022.57 241.605 1019.04 238.07 1014.68 238.07C1010.32 238.07 1006.78 241.605 1006.78 245.965C1006.78 250.325 1010.32 253.86 1014.68 253.86ZM1022.57 340.699C1022.57 345.059 1019.04 348.594 1014.68 348.594C1010.32 348.594 1006.78 345.059 1006.78 340.699C1006.78 336.339 1010.32 332.805 1014.68 332.805C1019.04 332.805 1022.57 336.339 1022.57 340.699ZM1014.68 285.438C1019.04 285.438 1022.57 281.903 1022.57 277.543C1022.57 273.183 1019.04 269.648 1014.68 269.648C1010.32 269.648 1006.78 273.183 1006.78 277.543C1006.78 281.903 1010.32 285.438 1014.68 285.438ZM1022.57 309.125C1022.57 313.485 1019.04 317.02 1014.68 317.02C1010.32 317.02 1006.78 313.485 1006.78 309.125C1006.78 304.765 1010.32 301.23 1014.68 301.23C1019.04 301.23 1022.57 304.765 1022.57 309.125ZM1046.25 285.438C1050.61 285.438 1054.15 281.903 1054.15 277.543C1054.15 273.183 1050.61 269.648 1046.25 269.648C1041.89 269.648 1038.36 273.183 1038.36 277.543C1038.36 281.903 1041.89 285.438 1046.25 285.438ZM1054.15 309.125C1054.15 313.485 1050.61 317.02 1046.25 317.02C1041.89 317.02 1038.36 313.485 1038.36 309.125C1038.36 304.765 1041.89 301.23 1046.25 301.23C1050.61 301.23 1054.15 304.765 1054.15 309.125ZM998.579 388.516C1009.55 388.516 1020.04 386.443 1029.67 382.668C1021.03 393.549 1010.26 400.006 998.579 400.006C986.898 400.006 976.125 393.549 967.484 382.668C977.118 386.443 987.607 388.516 998.579 388.516Z" fill="black"/>
<defs>
<linearGradient id="paint0_linear_3447_387" x1="241.539" y1="352.508" x2="516.539" y2="516.75" gradientUnits="userSpaceOnUse">
<stop stop-color="#B17DE8"/>
<stop offset="1" stop-color="#9983FB"/>
</linearGradient>
</defs>
</svg>
